<svg width="24" height="24" xmlns="http://www.w3.org/2000/svg">
 <title/>

 <g>
  <title>background</title>
  <rect x="-1" y="-1" width="26" height="26" id="canvas_background" fill="none"/>
 </g>
 <g>
  <title>Layer 1</title>
  <path d="m21.32,10.05l-1.74,-0.58a8,8 0 0 0 -0.43,-1.05l0.85,-1.63a1,1 0 0 0 -0.19,-1.15l-1.45,-1.42a1,1 0 0 0 -1.15,-0.22l-1.63,0.82a8,8 0 0 0 -1.05,-0.43l-0.53,-1.71a1,1 0 0 0 -1,-0.68l-2,0a1,1 0 0 0 -0.95,0.68l-0.58,1.74a8,8 0 0 0 -1.05,0.43l-1.63,-0.85a1,1 0 0 0 -1.15,0.19l-1.42,1.45a1,1 0 0 0 -0.22,1.15l0.82,1.63a8,8 0 0 0 -0.43,1.05l-1.74,0.58a1,1 0 0 0 -0.65,0.95l0,2a1,1 0 0 0 0.68,0.95l1.74,0.58a8,8 0 0 0 0.43,1.05l-0.85,1.63a1,1 0 0 0 0.19,1.15l1.42,1.42a1,1 0 0 0 1.18,0.22l1.63,-0.82a8,8 0 0 0 1.05,0.43l0.58,1.74a1,1 0 0 0 0.95,0.65l2,0a1,1 0 0 0 0.95,-0.68l0.58,-1.74a8,8 0 0 0 1.05,-0.43l1.63,0.82a1,1 0 0 0 1.15,-0.19l1.42,-1.42a1,1 0 0 0 0.22,-1.15l-0.82,-1.63a8,8 0 0 0 0.43,-1.05l1.71,-0.53a1,1 0 0 0 0.68,-1l0,-2a1,1 0 0 0 -0.68,-0.95zm-9.32,5.95a4,4 0 1 1 4,-4a4,4 0 0 1 -4,4z" fill="#000000" id="svg_1"/>
 </g>
</svg>