<svg width="512" height="512" xmlns="http://www.w3.org/2000/svg">

 <g>
  <title>background</title>
  <rect fill="none" id="canvas_background" height="402" width="582" y="-1" x="-1"/>
 </g>
 <g>
  <title>Layer 1</title>
  <path stroke-miterlimit="10" stroke-linejoin="round" stroke-linecap="round" stroke-width="30" stroke="#ff5656" fill="none" id="svg_3" d="m405.2,267.1c3.8,-4.6 7.2,-9.7 9.8,-14.9c17.5,-34.9 9.6,-74 -19.6,-100.1c-27.7,-24.9 -72.6,-27.2 -102.1,-4.6c-9.9,7.6 -18.4,16.9 -27.5,25.5c-5.9,5.6 -11.6,5.7 -17.4,0c-5.4,-5.3 -10.7,-10.8 -16.2,-16.1c-31,-30.5 -76.1,-33.9 -110.3,-7.6c-15.6,12 -25.4,27.1 -29.6,44.9" class="st0"/>
  <path stroke-miterlimit="10" stroke-linejoin="round" stroke-linecap="round" stroke-width="30" stroke="#ff5656" fill="none" id="svg_4" d="m90.1,214.75676c0,0.4 0,0.7 0,1.1c0,23.3 9.2,43.1 25.7,59.6c46.2,46.1 92.3,92.2 138.4,138.3c0.9,0.9 1.8,1.7 2.8,2.6c0.9,-0.8 1.8,-1.5 2.5,-2.3c39.9,-39.7 79.8,-79.3 119.5,-119.1" class="st0"/>
  <line stroke-linecap="round" stroke-linejoin="round" id="svg_5" y2="221.247675" x2="89.360253" y1="189.547569" x1="92.787292" fill-opacity="null" stroke-width="30" stroke="#ff5656" fill="none"/>
  <line transform="rotate(-3 391.7963867187472,282.07760620117205) " stroke-linecap="round" stroke-linejoin="round" id="svg_6" y2="292.358723" x2="381.515285" y1="271.796492" x1="402.077516" fill-opacity="null" stroke-width="30" stroke="#ff5656" fill="none"/>
  <line stroke="#ff5656" stroke-linecap="round" stroke-linejoin="round" id="svg_7" y2="369.46709" x2="256.428377" y1="218.677398" x1="112.492763" fill-opacity="null" stroke-width="57" fill="none"/>
  <line stroke="#ff5656" stroke-linecap="round" stroke-linejoin="round" id="svg_8" y2="348.904859" x2="274.42033" y1="198.115167" x1="130.484716" fill-opacity="null" stroke-width="57" fill="none"/>
  <line stroke="#ff5656" stroke-linecap="round" stroke-linejoin="round" id="svg_9" y2="331.769666" x2="288.985244" y1="180.979975" x1="145.04963" fill-opacity="null" stroke-width="57" fill="none"/>
  <line stroke="#ff5656" stroke-linecap="round" stroke-linejoin="round" id="svg_10" y2="316.347993" x2="309.547475" y1="165.558302" x1="165.611861" fill-opacity="null" stroke-width="57" fill="none"/>
  <line stroke="#ff5656" stroke-linecap="round" stroke-linejoin="round" id="svg_11" y2="307.780397" x2="324.969148" y1="156.990705" x1="181.033533" fill-opacity="null" stroke-width="57" fill="none"/>
  <line stroke="#ff5656" stroke-linecap="round" stroke-linejoin="round" id="svg_12" y2="293.215484" x2="357.526009" y1="191.261088" x1="267.56625" fill-opacity="null" stroke-width="57" fill="none"/>
  <line stroke="#ff5656" stroke-linecap="round" stroke-linejoin="round" id="svg_13" y2="253.804543" x2="381.515279" y1="175.839416" x1="297.552837" fill-opacity="null" stroke-width="57" fill="none"/>
  <line stroke="#ff5656" stroke-linecap="round" stroke-linejoin="round" id="svg_14" y2="240.953148" x2="398.650472" y1="162.988021" x1="314.688029" fill-opacity="null" stroke-width="57" fill="none"/>
  <line stroke="#ff5656" stroke-linecap="round" stroke-linejoin="round" id="svg_15" y2="210.966563" x2="402.93427" y1="151.850146" x1="336.107021" fill-opacity="null" stroke-width="57" fill="none"/>
 </g>
</svg>