<svg width="512" height="512" xmlns="http://www.w3.org/2000/svg">

 <g>
  <title>background</title>
  <rect fill="none" id="canvas_background" height="402" width="582" y="-1" x="-1"/>
 </g>
 <g>
  <title>Layer 1</title>
  <path stroke-miterlimit="10" stroke-linejoin="round" stroke-linecap="round" stroke-width="30" stroke="#000000" fill="none" id="svg_3" d="m405.2,267.1c3.8,-4.6 7.2,-9.7 9.8,-14.9c17.5,-34.9 9.6,-74 -19.6,-100.1c-27.7,-24.9 -72.6,-27.2 -102.1,-4.6c-9.9,7.6 -18.4,16.9 -27.5,25.5c-5.9,5.6 -11.6,5.7 -17.4,0c-5.4,-5.3 -10.7,-10.8 -16.2,-16.1c-31,-30.5 -76.1,-33.9 -110.3,-7.6c-15.6,12 -25.4,27.1 -29.6,44.9" class="st0"/>
  <path stroke-miterlimit="10" stroke-linejoin="round" stroke-linecap="round" stroke-width="30" stroke="#000000" fill="none" id="svg_4" d="m90.1,214.75676c0,0.4 0,0.7 0,1.1c0,23.3 9.2,43.1 25.7,59.6c46.2,46.1 92.3,92.2 138.4,138.3c0.9,0.9 1.8,1.7 2.8,2.6c0.9,-0.8 1.8,-1.5 2.5,-2.3c39.9,-39.7 79.8,-79.3 119.5,-119.1" class="st0"/>
  <line stroke-linecap="round" stroke-linejoin="round" id="svg_5" y2="221.247675" x2="89.360253" y1="189.547569" x1="92.787292" fill-opacity="null" stroke-opacity="null" stroke-width="30" stroke="#000000" fill="none"/>
  <line transform="rotate(-3 391.79638671874847,282.07757568359455) " stroke-linecap="round" stroke-linejoin="round" id="svg_6" y2="292.358723" x2="381.515285" y1="271.796492" x1="402.077516" fill-opacity="null" stroke-opacity="null" stroke-width="30" stroke="#000000" fill="none"/>
 </g>
</svg>