<svg width="96" height="45" xmlns="http://www.w3.org/2000/svg">

 <g>
  <title>background</title>
  <rect fill="none" id="canvas_background" height="602" width="802" y="-1" x="-1"/>
 </g>
 <g>
  <title>Layer 1</title>
  <path id="svg_1" fill="#ffffff" d="m7.59743,28.1722l0,11.2517l-7.59743,0l0,-33.09289c1.45617,0 3.0548,-0.01575 4.79587,-0.04727c1.77273,-0.03152 3.5613,-0.04729 5.36573,-0.04729c4.685,0 8.1039,1.04006 10.2565,3.12019c2.121,2.01706 3.1815,4.63296 3.1815,7.84776c0,3.0885 -1.1238,5.7203 -3.3714,7.895c-2.2476,2.1431 -5.2233,3.2147 -8.927,3.2147c-1.64614,0 -2.88071,-0.0472 -3.70377,-0.1419zm3.32387,-14.8444c-0.0317,0 -0.1741,0.0157 -0.4273,0.0473c-0.2533,0 -0.64899,0.0157 -1.18716,0.0472c-0.53814,0 -1.10796,0 -1.70941,0l0,7.5641c1.32954,0.1576 2.48497,0.2363 3.46637,0.2363c1.2978,0 2.3583,-0.3308 3.1814,-0.9928c0.8547,-0.6932 1.2821,-1.7176 1.2821,-3.0728c0,-2.5529 -1.5354,-3.8293 -4.606,-3.8293z"/>
  <path id="svg_2" fill="#ffffff" d="m31.415,13.4223l-6.3153,0l6.3153,-7.19296l10.1616,0.10166l0,5.2949l-16.4769,20.7066l16.9516,0l0,7.0914l-27.0658,0l0,-5.2949l16.4295,-20.7067z"/>
  <path id="svg_3" fill="#ffffff" d="m50.8613,15.0958l0,4.9868l-2.4351,0l0,-13.79748c0.5807,0 1.2077,-0.00657 1.8808,-0.01971c0.6864,-0.01315 1.3726,-0.01971 2.0589,-0.01971c0.9767,0 1.8214,0.12483 2.5341,0.3745c0.726,0.23653 1.2869,0.57161 1.6828,1.00525c0.396,0.42049 0.6864,0.88698 0.8711,1.39946c0.1848,0.49933 0.2772,1.05119 0.2772,1.65569c0,1.2484 -0.4488,2.3062 -1.3462,3.1734c-0.8844,0.8673 -2.1249,1.301 -3.722,1.301c-0.8052,0 -1.4056,-0.0198 -1.8016,-0.0592zm1.7422,-6.58337l-1.7422,0.03942l0,4.23785c0.6995,0.0657 1.2736,0.0985 1.7224,0.0985c0.7787,0 1.3991,-0.1905 1.861,-0.5716c0.4751,-0.3811 0.7127,-0.933 0.7127,-1.6557c0,-1.43232 -0.8513,-2.14847 -2.5539,-2.14847zm16.6162,11.57017l-8.6713,0l0,-13.79748l2.4351,0l0,11.53078l6.2362,0l0,2.2667zm2.8287,0l-2.4549,0l5.8601,-13.8369l2.1381,0l5.8601,13.8369l-2.5935,0l-1.4452,-3.5282l-5.9195,0l-1.4452,3.5282zm6.4342,-5.7949l-2.0193,-4.90799l-2.0392,4.90799l4.0585,0zm13.5691,-8.00258l2.6331,0l-4.9297,8.04198l0,5.7555l-2.4351,0l0,-5.7555l-4.89,-8.04198l2.7717,0l3.4448,5.77528l3.4052,-5.77528z"/>
  <path id="svg_4" fill="#ffffff" d="m56.0801,27.8907l-7.2658,0l0,-2.2667l10.5324,0l0,1.6754l-7.6815,9.8553l7.8795,0l0,2.2668l-11.1263,0l0,-1.6557l7.6617,-9.8751zm8.9011,11.5308l-2.4351,0l0,-13.7975l2.4351,0l0,13.7975zm6.5664,0l-2.4351,0l0,-13.7975l7.9191,0l0,2.2667l-5.484,0l0,3.9027l4.8901,0l0,2.2668l-4.8901,0l0,5.3613zm15.9213,-13.7975l2.6331,0l-4.9296,8.0419l0,5.7556l-2.4351,0l0,-5.7556l-4.8901,-8.0419l2.7717,0l3.4448,5.7752l3.4052,-5.7752z"/>
 </g>
</svg>