<svg xmlns="http://www.w3.org/2000/svg" width="97.33333587646484" height="45" fill="none" style=""><rect id="backgroundrect" width="100%" height="100%" x="0" y="0" fill="none" stroke="none"/>




<g class="currentLayer" style=""><title>Layer 1</title><path d="M7.59743 28.1722V39.4239H0V6.33101C1.45617 6.33101 3.0548 6.31526 4.79587 6.28374C6.5686 6.25222 8.35717 6.23645 10.1616 6.23645C14.8466 6.23645 18.2655 7.27651 20.4181 9.35664C22.5391 11.3737 23.5996 13.9896 23.5996 17.2044C23.5996 20.2929 22.4758 22.9247 20.2282 25.0994C17.9806 27.2425 15.0049 28.3141 11.3012 28.3141C9.65506 28.3141 8.42049 28.2669 7.59743 28.1722ZM10.9213 13.3278C10.8896 13.3278 10.7472 13.3435 10.494 13.3751C10.2407 13.3751 9.84501 13.3908 9.30684 13.4223C8.7687 13.4223 8.19888 13.4223 7.59743 13.4223V20.9864C8.92697 21.144 10.0824 21.2227 11.0638 21.2227C12.3616 21.2227 13.4221 20.8919 14.2452 20.2299C15.0999 19.5367 15.5273 18.5123 15.5273 17.1571C15.5273 14.6042 13.9919 13.3278 10.9213 13.3278Z" fill="#2e67ff" id="svg_1" class="" fill-opacity="1"/><path d="M31.415 13.4223H25.0997L31.415 6.22934L41.5766 6.331V11.6259L25.0997 32.3325H42.0513V39.4239H14.9855V34.129L31.415 13.4223Z" fill="#00cd94" id="svg_2" class="" fill-opacity="1"/><path d="M50.8613 15.0958V20.0826H48.4262V6.28512C49.0069 6.28512 49.6339 6.27855 50.307 6.26541C50.9934 6.25226 51.6796 6.2457 52.3659 6.2457C53.3426 6.2457 54.1873 6.37053 54.9 6.6202C55.626 6.85673 56.1869 7.19181 56.5828 7.62545C56.9788 8.04594 57.2692 8.51243 57.4539 9.02491C57.6387 9.52424 57.7311 10.0761 57.7311 10.6806C57.7311 11.929 57.2823 12.9868 56.3849 13.854C55.5005 14.7213 54.26 15.155 52.6629 15.155C51.8577 15.155 51.2573 15.1352 50.8613 15.0958ZM52.6035 8.51243L50.8613 8.55185V12.7897C51.5608 12.8554 52.1349 12.8882 52.5837 12.8882C53.3624 12.8882 53.9828 12.6977 54.4447 12.3166C54.9198 11.9355 55.1574 11.3836 55.1574 10.6609C55.1574 9.22858 54.3061 8.51243 52.6035 8.51243ZM69.2197 20.0826H60.5484V6.28512H62.9835V17.8159H69.2197V20.0826ZM72.0484 20.0826H69.5935L75.4536 6.2457H77.5917L83.4518 20.0826H80.8583L79.4131 16.5544H73.4936L72.0484 20.0826ZM78.4826 14.2877L76.4633 9.37971L74.4241 14.2877H78.4826ZM92.0517 6.28512H94.6848L89.7551 14.3271V20.0826H87.32V14.3271L82.43 6.28512H85.2017L88.6465 12.0604L92.0517 6.28512Z" fill="#222222" id="svg_3"/><path d="M56.0801 27.8907H48.8143V25.624H59.3467V27.2994L51.6652 37.1547H59.5447V39.4215H48.4184V37.7658L56.0801 27.8907ZM64.9812 39.4215H62.5461V25.624H64.9812V39.4215ZM71.5476 39.4215H69.1125V25.624H77.0316V27.8907H71.5476V31.7934H76.4377V34.0602H71.5476V39.4215ZM87.4689 25.624H90.102L85.1724 33.6659V39.4215H82.7373V33.6659L77.8472 25.624H80.6189L84.0637 31.3992L87.4689 25.624Z" fill="#222222" id="svg_4"/><image xmlns:xlink="http://www.w3.org/1999/xlink" id="svg_5" x="6" y="24" width="1" height="0" style="color: rgb(0, 0, 0);" xlink:href="logo/vector_paint_icon256.png"/></g></svg>