<svg width="136" height="136.21852" xmlns="http://www.w3.org/2000/svg" class="hovered-paths">

 <g>
  <title>background</title>
  <rect fill="none" id="canvas_background" height="602" width="802" y="-1" x="-1"/>
 </g>
 <g>
  <title>Layer 1</title>
  <g id="svg_1">
   <g id="surface1">
    <path id="svg_2" fill="#ffffff" class="hovered-path active-path" d="m93.14844,80.83203c16.35156,-23.08984 10.88281,-55.0625 -12.20703,-71.41015c-23.08985,-16.34766 -55.0625,-10.88282 -71.41016,12.21093c-16.34766,23.08985 -10.88281,55.0586 12.21094,71.40625c16.48047,11.66797 38.26953,12.56641 55.65234,2.30078l37.76953,37.54297c4.07813,4.29297 10.86328,4.46485 15.15625,0.38672c4.29297,-4.07422 4.46485,-10.85937 0.39063,-15.15234c-0.12891,-0.13672 -0.25391,-0.26172 -0.39063,-0.39063l-37.17187,-36.89453zm-41.83985,3.5c-18.24609,0.00391 -33.03906,-14.77734 -33.05078,-33.02344c-0.0039,-18.24609 14.77735,-33.03906 33.02735,-33.04687c18.22265,-0.00781 33.00781,14.75 33.04297,32.97266c0.03125,18.25 -14.74219,33.0664 -32.9961,33.09765c-0.00781,0 -0.01172,0 -0.02344,0zm0,0"/>
   </g>
  </g>
 </g>
</svg>